<?xml version="1.0" encoding="utf-8"?>
<!-- Generator: Adobe Illustrator 22.0.1, SVG Export Plug-In . SVG Version: 6.00 Build 0)  -->
<svg version="1.1" id="Layer_1" xmlns="http://www.w3.org/2000/svg" xmlns:xlink="http://www.w3.org/1999/xlink" x="0px" y="0px"
	 viewBox="0 0 413.5 531.1" style="enable-background:new 0 0 413.5 531.1;" xml:space="preserve">
<style type="text/css">
	.st0{fill:#FFFFFF;}
	.st1{fill:#004FA3;}
</style>
<rect class="st0" width="414.9" height="531.1"/>
<g>
	<path class="st1" d="M95.3,243.8c-1.2-40,3.9-81.9,35-110.6c37.1-34.3,80.7-33,114.1-15.7c27.7,14.3,59.2,53,61.4,104
		c2.1,50-22.8,93.9-44.9,119.2c-15.2,17.4-27.6,45.3-36.3,70.6c-8.5,24.9-12.9,33.4-29,40.9c-19.4,9-32.4-0.3-43.9-8l2.9,33.8
		c28.6,13.7,64.9,7.5,81.7-22.6c14.4-25.8,12.9-53.5,42.7-94.4c20.2-27.6,35.5-41.8,48.9-95.5c9.1-36.6,6.8-95.5-31.9-142.2
		c-41.7-50.1-117.3-64-169.3-24.9c-48.8,36.7-58.6,86.8-59,130L95.3,243.8L95.3,243.8z M110.6,246.6l24.1-19.2
		c-0.8-19.5,5.4-51.9,32.7-67.9c27.6-16.2,63.6-8.9,82.1,18.1c24,35.1,14.9,66.3,8.5,80.9l30.3-3.5c6-18.7,6.4-53.9-11.6-85.9
		c-16.5-29.2-44.8-49.4-81.9-48c-35.4,1.4-57,22-68.8,40.5C108.5,188.8,106.9,218.5,110.6,246.6L110.6,246.6z M0,0h340.3l-66.1,89.1
		c28.6,20.3,48.9,47.8,60.9,82.7l78.4-108.6v467.9H76.4l115-157.5l-86.2-49.2L0,467.6L0,0L0,0z"/>
</g>
<rect x="414.9" y="258.5" class="st1" width="7.1" height="7.1"/>
</svg>
